<svg width="256" height="262" viewBox="0 0 256 262" xmlns="http://www.w3.org/2000/svg" role="img" aria-label="Google">
  <path d="M255.878 133.451c0-10.682-.952-18.473-3.048-26.58H130.55v48.448h71.84c-1.448 12.04-9.267 30.167-26.646 42.352l-.243 1.622 38.755 29.529 2.684.265c24.657-22.205 38.938-54.9 38.938-95.636" fill="#4285F4"/>
  <path d="M130.55 261.1c35.176 0 64.72-11.394 86.293-31.012l-41.196-31.416c-11.02 7.547-25.82 12.852-45.097 12.852-34.452 0-63.72-22.205-74.145-52.904l-1.561.13-40.298 30.674-.537 1.468c21.45 41.677 65.197 70.208 116.54 70.208" fill="#34A853"/>
  <path d="M56.406 158.62c-2.752-7.791-4.324-16.125-4.324-24.724 0-8.599 1.572-16.932 4.18-24.723l-.074-1.731-40.813-31.167-1.336.623C5.191 94.083 0 113.097 0 133.896c0 20.799 5.191 39.812 14.038 57l42.368-32.276" fill="#FBBC05"/>
  <path d="M130.55 50.479c24.324 0 40.73 10.274 50.083 18.871l36.598-35.128C195.127 13.964 165.726 0 130.55 0 79.206 0 35.459 28.53 14.01 70.207l42.223 32.275c10.569-30.699 39.838-52.003 74.317-52.003" fill="#EB4335"/>
</svg>
